<?xml version="1.0" standalone="no"?>
<!DOCTYPE svg PUBLIC "-//W3C//DTD SVG 20010904//EN"
 "http://www.w3.org/TR/2001/REC-SVG-20010904/DTD/svg10.dtd">
<svg version="1.0" xmlns="http://www.w3.org/2000/svg"
 width="256.000000pt" height="256.000000pt" viewBox="0 0 256.000000 256.000000"
 preserveAspectRatio="xMidYMid meet">

<g transform="translate(0.000000,256.000000) scale(0.100000,-0.100000)"
fill="#000000" stroke="none">
<path d="M1105 2521 c-137 -39 -271 -145 -329 -259 -64 -127 -90 -304 -67
-462 29 -194 133 -421 250 -543 35 -37 36 -40 37 -120 2 -76 4 -83 31 -105 33
-28 141 -82 164 -82 29 0 28 -12 -7 -66 -19 -29 -54 -93 -78 -140 l-44 -87
-37 57 c-20 32 -59 104 -87 162 -28 57 -55 104 -60 104 -20 0 -189 -75 -283
-125 -179 -96 -308 -201 -363 -294 -32 -54 -43 -183 -21 -258 55 -200 506
-309 1194 -289 422 11 686 61 833 155 95 62 122 116 122 240 -1 42 -7 92 -14
113 -47 131 -237 277 -517 397 -63 26 -124 51 -135 55 -20 6 -28 -5 -77 -108
-30 -63 -70 -136 -87 -161 l-32 -46 -34 71 c-18 39 -54 102 -78 140 -44 68
-47 80 -17 80 23 0 131 54 164 82 25 21 28 29 30 100 2 63 7 83 25 105 110
138 175 249 217 373 147 432 -7 823 -361 914 -84 22 -259 20 -339 -3z"/>
</g>
</svg>
